<svg data-v-423bf9ae=""
    xmlns="http://www.w3.org/2000/svg" viewBox="0 0 955.5110217218676 193" class="fontAboveSlogan">    <!---->    <!---->    <!---->
    <g data-v-423bf9ae="" id="5e5a1c8e-478f-4ab7-b726-b5f7083c70e1" fill="white" transform="matrix(8.304497831430517,0,0,8.304497831430517,38.074670028607784,-2.629617416458032)">
        <path d="M8.20 2.31C7.46 0.80 5.88 0.36 4.35 0.36C2.55 0.38 0.56 1.20 0.56 3.22C0.56 5.42 2.41 5.95 4.41 6.19C5.71 6.33 6.68 6.71 6.68 7.63C6.68 8.69 5.59 9.10 4.42 9.10C3.23 9.10 2.10 8.62 1.67 7.55L0.13 8.34C0.85 10.14 2.39 10.75 4.40 10.75C6.58 10.75 8.51 9.81 8.51 7.63C8.51 5.29 6.61 4.76 4.56 4.51C3.39 4.37 2.38 4.13 2.38 3.28C2.38 2.55 3.04 1.97 4.41 1.97C5.47 1.97 6.40 2.51 6.73 3.07ZM10.51 1.83L10.51 3.61L9.23 3.61L9.23 5.08L10.51 5.08L10.51 8.06C10.51 9.79 11.49 10.64 12.99 10.58C13.51 10.57 13.92 10.49 14.41 10.29L13.93 8.83C13.68 8.96 13.37 9.04 13.10 9.04C12.57 9.04 12.21 8.72 12.21 8.06L12.21 5.08L14.13 5.08L14.13 3.61L12.22 3.61L12.22 1.65ZM20.82 4.55C20.43 3.86 19.54 3.43 18.62 3.43C16.60 3.42 15.02 4.66 15.02 7.04C15.02 9.46 16.53 10.72 18.58 10.71C19.35 10.70 20.43 10.30 20.82 9.49L20.90 10.50L22.51 10.50L22.51 3.60L20.87 3.60ZM18.77 4.96C21.46 4.96 21.46 9.14 18.77 9.14C17.64 9.14 16.73 8.36 16.73 7.04C16.73 5.73 17.64 4.96 18.77 4.96ZM28.88 8.50C28.46 8.92 27.92 9.07 27.37 9.07C26.31 9.07 25.41 8.37 25.41 7.06C25.41 5.85 26.25 5.01 27.40 5.01C27.87 5.01 28.38 5.19 28.78 5.56L29.86 4.42C29.11 3.68 28.35 3.40 27.37 3.40C25.37 3.40 23.70 4.61 23.70 7.06C23.70 9.51 25.37 10.71 27.37 10.71C28.39 10.71 29.23 10.40 30.03 9.62ZM30.74 0.71L30.74 10.50L32.45 10.50L32.45 7.38L35.15 10.50L37.21 10.50L37.21 10.37L34.01 6.85L36.82 3.70L36.82 3.60L34.78 3.60L32.45 6.37L32.45 0.71ZM44.84 7.66C45.11 4.82 43.67 3.39 41.36 3.39C39.12 3.39 37.69 4.90 37.69 7C37.69 9.21 39.10 10.68 41.48 10.68C42.53 10.68 43.72 10.32 44.45 9.56L43.36 8.48C42.97 8.89 42.14 9.13 41.51 9.13C40.31 9.13 39.56 8.51 39.45 7.66ZM39.48 6.24C39.73 5.35 40.49 4.90 41.41 4.90C42.39 4.90 43.09 5.35 43.20 6.24ZM49.50 5.03C50.58 5.03 51.51 5.84 51.51 7.04C51.51 8.29 50.58 9.07 49.50 9.07C48.41 9.07 47.54 8.25 47.54 7.04C47.54 5.80 48.41 5.03 49.50 5.03ZM51.62 0.71L51.62 4.54C51.21 3.82 50.08 3.43 49.35 3.43C47.33 3.43 45.84 4.66 45.84 7.04C45.84 9.31 47.36 10.65 49.39 10.65C50.23 10.65 51.09 10.37 51.62 9.55L51.73 10.50L53.33 10.50L53.33 0.71ZM62.37 3.77C61.89 3.44 61.33 3.37 60.79 3.37C58.86 3.37 57.29 4.72 57.29 6.87C57.29 9.03 58.63 10.35 60.79 10.35C61.64 10.35 62.54 10.78 62.54 11.73C62.54 12.68 61.77 13.22 60.79 13.22C59.81 13.22 58.98 12.63 58.98 11.73L57.29 11.73C57.29 13.59 58.79 14.81 60.79 14.81C62.79 14.81 64.25 13.64 64.25 11.73C64.25 10.85 63.97 10.02 62.82 9.45C63.95 8.93 64.27 7.73 64.27 6.87C64.27 6.12 64.08 5.43 63.55 4.83L64.32 3.85L63.06 2.90ZM60.79 4.93C61.77 4.93 62.58 5.68 62.58 6.87C62.58 8.06 61.77 8.79 60.79 8.79C59.79 8.79 58.98 8.08 58.98 6.87C58.98 5.67 59.79 4.93 60.79 4.93ZM72.21 7.66C72.48 4.82 71.04 3.39 68.73 3.39C66.49 3.39 65.06 4.90 65.06 7C65.06 9.21 66.47 10.68 68.85 10.68C69.90 10.68 71.09 10.32 71.82 9.56L70.73 8.48C70.34 8.89 69.51 9.13 68.88 9.13C67.68 9.13 66.93 8.51 66.82 7.66ZM66.85 6.24C67.10 5.35 67.86 4.90 68.78 4.90C69.76 4.90 70.46 5.35 70.57 6.24ZM80.32 10.50L80.32 6.87C80.32 4.70 79.02 3.49 77.39 3.49C76.52 3.49 75.82 3.84 75.12 4.52L75.01 3.58L73.49 3.58L73.49 10.50L75.18 10.50L75.18 6.97C75.18 5.92 75.89 5.04 76.94 5.04C78.04 5.04 78.61 5.84 78.61 6.89L78.61 10.50ZM88.63 7.66C88.90 4.82 87.46 3.39 85.15 3.39C82.91 3.39 81.48 4.90 81.48 7C81.48 9.21 82.89 10.68 85.27 10.68C86.32 10.68 87.51 10.32 88.24 9.56L87.15 8.48C86.76 8.89 85.93 9.13 85.30 9.13C84.10 9.13 83.36 8.51 83.24 7.66ZM83.27 6.24C83.52 5.35 84.28 4.90 85.20 4.90C86.18 4.90 86.88 5.35 87.00 6.24ZM95.41 4.31C94.61 3.61 93.80 3.40 92.72 3.40C91.46 3.40 89.81 3.96 89.81 5.56C89.81 7.13 91.36 7.60 92.67 7.70C93.65 7.76 94.04 7.95 94.04 8.43C94.04 8.93 93.44 9.27 92.79 9.25C92.02 9.24 90.90 8.83 90.41 8.29L89.57 9.51C90.58 10.56 91.67 10.74 92.76 10.74C94.74 10.74 95.73 9.69 95.73 8.47C95.73 6.64 94.08 6.34 92.78 6.26C91.90 6.20 91.49 5.95 91.49 5.50C91.49 5.07 91.94 4.82 92.75 4.82C93.41 4.82 93.97 4.97 94.46 5.43ZM98.53 3.57L98.53 10.50L96.82 10.50L96.82 3.57ZM96.67 1.65C96.67 2.98 98.69 2.98 98.69 1.65C98.69 0.32 96.67 0.32 96.67 1.65ZM105.53 4.31C104.73 3.61 103.92 3.40 102.84 3.40C101.58 3.40 99.93 3.96 99.93 5.56C99.93 7.13 101.49 7.60 102.79 7.70C103.77 7.76 104.16 7.95 104.16 8.43C104.16 8.93 103.56 9.27 102.91 9.25C102.14 9.24 101.02 8.83 100.53 8.29L99.69 9.51C100.70 10.56 101.79 10.74 102.89 10.74C104.86 10.74 105.85 9.69 105.85 8.47C105.85 6.64 104.20 6.34 102.90 6.26C102.02 6.20 101.61 5.95 101.61 5.50C101.61 5.07 102.06 4.82 102.87 4.82C103.53 4.82 104.09 4.97 104.58 5.43Z"></path>
    </g>    <!---->    <!---->
    <g data-v-423bf9ae="" id="7c631d5d-b257-4f0d-814c-f74d54e6593c" fill="white" transform="matrix(6.32244483109513,0,0,6.32244483109513,-7.144362325258271,119.72286502714408)">
        <path d="M1.13 2.21L1.13 11.48L7.24 11.48L7.24 10.47L2.18 10.47L2.18 2.21ZM22.41 3.22L22.41 2.21L15.60 2.21L15.60 11.48L22.41 11.48L22.41 10.47L16.65 10.47L16.65 7.35L21.80 7.35L21.80 6.33L16.65 6.33L16.65 3.22ZM35.27 2.21L33.95 2.21L30.02 11.48L31.18 11.48L32.31 8.79L36.90 8.79L38.04 11.48L39.20 11.48ZM32.72 7.83L34.61 3.30L36.50 7.83ZM48.43 7.92L51.65 7.92L53.89 11.48L55.13 11.48L52.70 7.74C53.73 7.50 54.94 6.90 54.94 5.11C54.94 3.35 53.72 2.21 51.81 2.21L47.38 2.21L47.38 11.48L48.43 11.48ZM48.43 3.21L51.69 3.21C53.00 3.21 53.89 3.93 53.89 5.11C53.89 6.55 52.63 6.93 51.63 6.93L48.43 6.93ZM70.69 2.21L70.69 10.01L64.96 2.21L63.74 2.21L63.74 11.48L64.79 11.48L64.79 3.65L70.52 11.48L71.74 11.48L71.74 2.21ZM83.78 2.10C81.76 2.10 80.70 3.19 80.70 4.63C80.70 5.56 81.47 6.38 82.10 6.58C81.02 6.99 80.39 7.83 80.39 8.82C80.39 10.47 81.89 11.59 83.64 11.59C85.61 11.59 86.80 10.49 86.80 8.90L86.80 7.13L87.71 7.13L87.71 6.19L86.80 6.19L86.80 5.57L85.82 5.57L85.82 6.19L83.57 6.19C82.60 6.19 81.75 5.70 81.75 4.65C81.75 3.77 82.36 3.05 83.75 3.05C84.84 3.05 85.47 3.58 85.61 4.03L86.72 4.03C86.52 3.08 85.68 2.10 83.78 2.10ZM85.82 7.13L85.82 8.99C85.82 9.86 85.11 10.65 83.64 10.65C82.32 10.65 81.44 9.80 81.44 8.85C81.44 7.91 82.26 7.13 83.44 7.13ZM102.94 3.22L102.94 2.21L96.12 2.21L96.12 11.48L102.94 11.48L102.94 10.47L97.17 10.47L97.17 7.35L102.33 7.35L102.33 6.33L97.17 6.33L97.17 3.22ZM115.79 2.21L114.48 2.21L110.54 11.48L111.71 11.48L112.84 8.79L117.43 8.79L118.57 11.48L119.73 11.48ZM113.25 7.83L115.14 3.30L117.03 7.83ZM128.95 7.92L132.17 7.92L134.41 11.48L135.66 11.48L133.22 7.74C134.26 7.50 135.46 6.90 135.46 5.11C135.46 3.35 134.25 2.21 132.34 2.21L127.90 2.21L127.90 11.48L128.95 11.48ZM128.95 3.21L132.22 3.21C133.53 3.21 134.41 3.93 134.41 5.11C134.41 6.55 133.15 6.93 132.16 6.93L128.95 6.93ZM151.21 2.21L151.21 10.01L145.49 2.21L144.27 2.21L144.27 11.48L145.32 11.48L145.32 3.65L151.05 11.48L152.26 11.48L152.26 2.21Z"></path>
    </g>
</svg>